<svg width="216" height="216" viewBox="0 0 216 216" fill="none" xmlns="http://www.w3.org/2000/svg">
<g clip-path="url(#clip0_535_5)">
<path d="M27 55C27 53.3431 28.3431 52 30 52H176.153C177.01 52 177.826 52.3664 178.395 53.0069L180.742 55.6475C181.23 56.1967 181.5 56.9059 181.5 57.6406V82.8657C181.5 83.5966 181.767 84.3025 182.25 84.8506L188.25 91.6494C188.733 92.1975 189 92.9034 189 93.6343V153.814C189 154.576 188.71 155.309 188.189 155.865L182.389 162.052C181.822 162.657 181.03 163 180.2 163H30C28.3431 163 27 161.657 27 160V55Z" fill="white"/>
<path d="M2 75H45V102H2V75Z" fill="url(#paint0_linear_535_5)"/>
<path d="M118 56H166V62H118V56Z" fill="#656D81"/>
<path d="M66 56H114V62H66V56Z" fill="#656D81"/>
<path d="M118 152H166V158H118V152Z" fill="#656D81"/>
<path d="M66 152H114V158H66V152Z" fill="#656D81"/>
<path d="M52 142C52 137.029 56.0294 133 61 133C65.9706 133 70 137.029 70 142C70 146.971 65.9706 151 61 151C56.0294 151 52 146.971 52 142Z" fill="#D2D2D2"/>
<path d="M72 142C72 137.029 76.0294 133 81 133C85.9706 133 90 137.029 90 142C90 146.971 85.9706 151 81 151C76.0294 151 72 146.971 72 142Z" fill="#D2D2D2"/>
<path d="M46 105.5C46 102.462 48.4624 100 51.5 100H80.5C83.5376 100 86 102.462 86 105.5C86 108.538 83.5376 111 80.5 111H51.5C48.4624 111 46 108.538 46 105.5Z" fill="#D2D2D2"/>
<path d="M30 57C30 55.3431 31.3431 54 33 54H45C46.6569 54 48 55.3431 48 57V69C48 70.6569 46.6569 72 45 72H33C31.3431 72 30 70.6569 30 69V57Z" fill="#D2D2D2"/>
<path d="M95 115H170V133H95V115Z" fill="#616161"/>
<path d="M97 111H104V115H97V111Z" fill="#D2D2D2"/>
<path d="M106 111H113V115H106V111Z" fill="#D2D2D2"/>
<path d="M115 111H122V115H115V111Z" fill="#D2D2D2"/>
<path d="M124 111H131V115H124V111Z" fill="#D2D2D2"/>
<path d="M133 111H140V115H133V111Z" fill="#D2D2D2"/>
<path d="M142 111H149V115H142V111Z" fill="#D2D2D2"/>
<path d="M151 111H158V115H151V111Z" fill="#D2D2D2"/>
<path d="M160 111H167V115H160V111Z" fill="#D2D2D2"/>
<path d="M97 133H104V137H97V133Z" fill="#D2D2D2"/>
<path d="M106 133H113V137H106V133Z" fill="#D2D2D2"/>
<path d="M115 133H122V137H115V133Z" fill="#D2D2D2"/>
<path d="M124 133H131V137H124V133Z" fill="#D2D2D2"/>
<path d="M133 133H140V137H133V133Z" fill="#D2D2D2"/>
<path d="M142 133H149V137H142V133Z" fill="#D2D2D2"/>
<path d="M151 133H158V137H151V133Z" fill="#D2D2D2"/>
<path d="M160 133H167V137H160V133Z" fill="#D2D2D2"/>
<path d="M8 133H45V149H8V133Z" fill="url(#paint1_linear_535_5)"/>
</g>
<defs>
<linearGradient id="paint0_linear_535_5" x1="26.5" y1="133" x2="26.5" y2="149" gradientUnits="userSpaceOnUse">
<stop stop-color="#D2D2D2"/>
<stop offset="1" stop-color="#B9B9B9"/>
</linearGradient>
<linearGradient id="paint1_linear_535_5" x1="26.5" y1="133" x2="26.5" y2="149" gradientUnits="userSpaceOnUse">
<stop stop-color="#D2D2D2"/>
<stop offset="1" stop-color="#B9B9B9"/>
</linearGradient>
<clipPath id="clip0_535_5">
<rect width="216" height="216" fill="white"/>
</clipPath>
</defs>
</svg>
