<svg width="216" height="216" viewBox="0 0 216 216" fill="none" xmlns="http://www.w3.org/2000/svg">
<path d="M97.425 146.925L138.825 110.025C140.175 108.825 140.55 107.4 139.95 105.75C139.35 104.1 138.15 103.125 136.35 102.825L103.95 99.675L123.3 72.9C123.75 72.15 124.012 71.4375 124.087 70.7625C124.162 70.0875 123.9 69.45 123.3 68.85C122.7 68.1 121.95 67.7625 121.05 67.8375C120.15 67.9125 119.325 68.25 118.575 68.85L77.4 105.75C76.05 106.95 75.675 108.375 76.275 110.025C76.875 111.675 78.075 112.65 79.875 112.95L112.275 116.1L92.7 142.875C92.25 143.625 92.025 144.337 92.025 145.012C92.025 145.687 92.325 146.325 92.925 146.925C93.525 147.525 94.2375 147.825 95.0625 147.825C95.8875 147.825 96.675 147.525 97.425 146.925ZM108 180C99.6 180 91.6875 178.687 84.2625 176.062C76.8375 173.437 70.05 169.725 63.9 164.925L51.525 177.3C50.625 178.2 49.6125 178.875 48.4875 179.325C47.3625 179.775 46.2 180 45 180C42.45 180 40.3125 179.137 38.5875 177.412C36.8625 175.687 36 173.55 36 171C36 169.8 36.225 168.637 36.675 167.512C37.125 166.387 37.8 165.375 38.7 164.475L51.075 152.1C46.275 145.95 42.5625 139.162 39.9375 131.737C37.3125 124.312 36 116.4 36 108C36 87.9 42.975 70.875 56.925 56.925C70.875 42.975 87.9 36 108 36H180V108C180 128.1 173.025 145.125 159.075 159.075C145.125 173.025 128.1 180 108 180Z" fill="#E8EAED"/>
</svg>
