<svg width="216" height="216" viewBox="0 0 216 216" fill="none" xmlns="http://www.w3.org/2000/svg">
<g clip-path="url(#clip0_535_8)">
<path d="M41 87.2272C41 73.758 50.59 62.1974 63.8274 59.7091L102.327 52.4723C105.746 51.8297 109.254 51.8297 112.673 52.4723L151.173 59.7091C164.41 62.1974 174 73.758 174 87.2272V128.447C174 141.613 164.828 153 151.965 155.805L113.465 164.199C109.535 165.056 105.465 165.056 101.535 164.199L63.0349 155.805C50.1718 153 41 141.613 41 128.447V87.2272Z" fill="white"/>
<path d="M64 128.5V98C64 92.4772 68.4772 88 74 88H76C81.5228 88 86 92.4772 86 98V118.5C86 124.023 90.4772 128.5 96 128.5H99C104.523 128.5 109 124.023 109 118.5V98C109 92.4772 113.477 88 119 88H120.5C126.023 88 130.5 92.4772 130.5 98V118.5C130.5 124.023 134.977 128.5 140.5 128.5H141.5C147.023 128.5 151.5 124.023 151.5 118.5V88" stroke="black" stroke-width="6" stroke-linecap="round"/>
<circle cx="50" cy="108" r="4" fill="black"/>
<circle cx="166" cy="108" r="4" fill="black"/>
</g>
<defs>
<clipPath id="clip0_535_8">
<rect width="216" height="216" fill="white"/>
</clipPath>
</defs>
</svg>
