<svg width="216" height="216" viewBox="0 0 216 216" fill="none" xmlns="http://www.w3.org/2000/svg">
<g clip-path="url(#clip0_535_11)">
<path fill-rule="evenodd" clip-rule="evenodd" d="M121 70V58L75 58C72.7909 58 71 56.2091 71 54C71 51.7909 72.7909 50 75 50H129H148H202C204.209 50 206 51.7909 206 54C206 56.2091 204.209 58 202 58H156V70H181C185.418 70 189 73.5817 189 78V87H190C192.209 87 194 88.7909 194 91V102H205C208.314 102 211 104.686 211 108C211 111.314 208.314 114 205 114H194V166C194 173.18 188.18 179 181 179H34C26.8203 179 21 173.18 21 166V114H10C6.68629 114 4 111.314 4 108C4 104.686 6.68629 102 10 102H21V91C21 88.7909 22.7909 87 25 87H89V78C89 73.5817 92.5817 70 97 70H121Z" fill="white"/>
<rect x="34" y="114" width="122" height="51" rx="5" fill="#CFCFCF"/>
</g>
<defs>
<clipPath id="clip0_535_11">
<rect width="216" height="216" fill="white"/>
</clipPath>
</defs>
</svg>
